<?xml version="1.0" encoding="UTF-8"?>
<svg width="752pt" height="752pt" version="1.1" viewBox="0 0 752 752" xmlns="http://www.w3.org/2000/svg">
 <path d="m242.81 191.01c0.007812-9.8086 3.9102-19.211 10.848-26.148s16.34-10.836 26.148-10.848h192.39c9.8086 0.011719 19.211 3.9102 26.148 10.848 6.9336 6.9375 10.836 16.34 10.848 26.148v148c0 4.0859-3.3125 7.3984-7.3984 7.3984s-7.3984-3.3125-7.3984-7.3984v-148c-0.007813-5.8828-2.3477-11.527-6.5117-15.688-4.1602-4.1641-9.8047-6.5039-15.688-6.5117h-192.39c-5.8867 0.007812-11.527 2.3477-15.688 6.5117-4.1641 4.1602-6.5039 9.8047-6.5117 15.688 0 4.0859-3.3125 7.4023-7.3984 7.4023-4.0859 0-7.3984-3.3164-7.3984-7.4023zm258.99 362.59c-4.0859 0-7.3984 3.3125-7.3984 7.3984-0.007813 5.8867-2.3477 11.531-6.5117 15.691-4.1602 4.1641-9.8047 6.5039-15.688 6.5078h-192.39c-5.8867-0.003906-11.527-2.3438-15.688-6.5078-4.1641-4.1602-6.5039-9.8047-6.5117-15.691v-103.59c0-4.0859-3.3125-7.3984-7.3984-7.3984-4.0859 0-7.3984 3.3125-7.3984 7.3984v103.59c0.007812 9.8125 3.9102 19.215 10.848 26.152 6.9375 6.9336 16.34 10.836 26.148 10.848h192.39c9.8086-0.011719 19.211-3.9141 26.148-10.848 6.9336-6.9375 10.836-16.34 10.848-26.152 0-1.9609-0.77734-3.8438-2.168-5.2305-1.3867-1.3867-3.2695-2.168-5.2305-2.168zm96.195-140.59v73.996c-0.011719 9.8086-3.9141 19.215-10.848 26.148-6.9375 6.9375-16.34 10.84-26.152 10.852h-147.99c-9.8086-0.011719-19.215-3.9141-26.148-10.852-6.9375-6.9336-10.84-16.34-10.852-26.148v-73.996c0.011719-9.8086 3.9141-19.215 10.852-26.148 6.9336-6.9375 16.34-10.84 26.148-10.852h147.99c9.8125 0.011719 19.215 3.9141 26.152 10.852 6.9336 6.9336 10.836 16.34 10.848 26.148zm-207.19 51.797h192.39v-51.797c-0.003906-5.8867-2.3438-11.527-6.5078-15.691-4.1602-4.1602-9.8047-6.5-15.691-6.5078h-147.99c-5.8867 0.007813-11.527 2.3477-15.691 6.5078-4.1602 4.1641-6.5 9.8047-6.5078 15.691zm192.39 14.801h-192.39v7.3984c0.007813 5.8867 2.3477 11.527 6.5078 15.691 4.1641 4.1602 9.8047 6.5039 15.691 6.5078h147.99c5.8867-0.003906 11.531-2.3477 15.691-6.5078 4.1641-4.1641 6.5039-9.8047 6.5078-15.691zm-44.398-59.199h-14.797c-4.0859 0-7.3984 3.3125-7.3984 7.4023 0 4.0859 3.3125 7.3984 7.3984 7.3984h14.801-0.003906c4.0898 0 7.4023-3.3125 7.4023-7.3984 0-4.0898-3.3125-7.4023-7.4023-7.4023zm-177.59-214.59c-4.0859 0-7.4023 3.3125-7.4023 7.3984 0 4.0859 3.3164 7.4023 7.4023 7.4023h29.598c4.0859 0 7.3984-3.3164 7.3984-7.4023 0-4.0859-3.3125-7.3984-7.3984-7.3984zm-111 214.59c-25.512 0-49.98-10.133-68.023-28.176-18.039-18.039-28.172-42.508-28.172-68.02s10.133-49.98 28.172-68.02c18.043-18.043 42.512-28.176 68.023-28.176s49.98 10.133 68.02 28.176c18.043 18.039 28.176 42.508 28.176 68.02-0.027344 25.504-10.172 49.957-28.207 67.988-18.035 18.035-42.484 28.18-67.988 28.207zm0-14.801v0.003906c21.586 0 42.289-8.5781 57.555-23.844 15.266-15.262 23.84-35.965 23.84-57.555 0-21.586-8.5742-42.289-23.84-57.555-15.266-15.266-35.969-23.84-57.555-23.84-21.59 0-42.293 8.5742-57.559 23.84-15.262 15.266-23.84 35.969-23.84 57.555 0.027344 21.582 8.6094 42.27 23.867 57.531 15.262 15.258 35.949 23.84 57.531 23.867zm16.969-53.965c2.9023 2.8047 7.5156 2.7656 10.371-0.089843 2.8555-2.8516 2.8945-7.4688 0.089844-10.371l-16.965-16.969 16.965-16.969c2.8047-2.9023 2.7656-7.5156-0.089844-10.371s-7.4688-2.8945-10.371-0.089843l-16.969 16.965-16.969-16.965c-2.9023-2.8047-7.5195-2.7656-10.371 0.089843-2.8555 2.8555-2.8945 7.4688-0.089844 10.371l16.965 16.969-16.965 16.969c-1.4297 1.3789-2.2422 3.2734-2.2617 5.2578-0.015625 1.9844 0.76562 3.8945 2.168 5.2969 1.4023 1.4023 3.3125 2.1836 5.2969 2.168 1.9844-0.019531 3.8789-0.83203 5.2578-2.2617l16.969-16.965z"/>
</svg>
