<?xml version="1.0" encoding="UTF-8"?>
<svg width="752pt" height="752pt" version="1.1" viewBox="0 0 752 752" xmlns="http://www.w3.org/2000/svg">
 <path d="m242.81 339v-148c0.007812-9.8086 3.9102-19.211 10.848-26.148s16.34-10.836 26.148-10.848h192.39c9.8086 0.011719 19.211 3.9102 26.148 10.848 6.9336 6.9375 10.836 16.34 10.848 26.148 0 4.0859-3.3125 7.4023-7.3984 7.4023s-7.3984-3.3164-7.3984-7.4023c-0.007813-5.8828-2.3477-11.527-6.5117-15.688-4.1602-4.1641-9.8047-6.5039-15.688-6.5117h-192.39c-5.8867 0.007812-11.527 2.3477-15.688 6.5117-4.1641 4.1602-6.5039 9.8047-6.5117 15.688v148c0 4.0859-3.3125 7.3984-7.3984 7.3984-4.0859 0-7.3984-3.3125-7.3984-7.3984zm258.99 111c-4.0859 0-7.3984 3.3125-7.3984 7.3984v103.59c-0.007813 5.8867-2.3477 11.531-6.5117 15.691-4.1602 4.1641-9.8047 6.5039-15.688 6.5078h-192.39c-5.8867-0.003906-11.527-2.3438-15.688-6.5078-4.1641-4.1602-6.5039-9.8047-6.5117-15.691 0-4.0859-3.3125-7.3984-7.3984-7.3984-4.0859 0-7.3984 3.3125-7.3984 7.3984 0.007812 9.8125 3.9102 19.215 10.848 26.152 6.9375 6.9336 16.34 10.836 26.148 10.848h192.39c9.8086-0.011719 19.211-3.9141 26.148-10.848 6.9336-6.9375 10.836-16.34 10.848-26.152v-103.59c0-1.9609-0.77734-3.8438-2.168-5.2344-1.3867-1.3867-3.2695-2.1641-5.2305-2.1641zm-162.79 73.996h-148c-9.8086-0.011719-19.211-3.9141-26.148-10.852-6.9375-6.9336-10.836-16.34-10.848-26.148v-73.996c0.011719-9.8086 3.9102-19.215 10.848-26.148 6.9375-6.9375 16.34-10.84 26.148-10.852h148c9.8086 0.011719 19.211 3.9141 26.148 10.852 6.9375 6.9336 10.836 16.34 10.848 26.148v73.996c-0.011719 9.8086-3.9102 19.215-10.848 26.148-6.9375 6.9375-16.34 10.84-26.148 10.852zm-170.2-59.199h192.39v-51.797c-0.007813-5.8867-2.3477-11.527-6.5117-15.691-4.1602-4.1602-9.8047-6.5-15.688-6.5078h-148c-5.8828 0.007813-11.527 2.3477-15.688 6.5078-4.1641 4.1641-6.5039 9.8047-6.5117 15.691zm22.199 44.398h148c5.8828-0.003906 11.527-2.3477 15.688-6.5078 4.1641-4.1641 6.5039-9.8047 6.5117-15.691v-7.3984h-192.39v7.3984c0.007812 5.8867 2.3477 11.527 6.5117 15.691 4.1602 4.1602 9.8047 6.5039 15.688 6.5078zm133.2-88.797h-14.801c-4.0859 0-7.3984 3.3125-7.3984 7.4023 0 4.0859 3.3125 7.3984 7.3984 7.3984h14.801c4.0859 0 7.3984-3.3125 7.3984-7.3984 0-4.0898-3.3125-7.4023-7.3984-7.4023zm37-214.59c-4.0859 0-7.4023 3.3125-7.4023 7.3984 0 4.0859 3.3164 7.4023 7.4023 7.4023h29.598c4.0859 0 7.3984-3.3164 7.3984-7.4023 0-4.0859-3.3125-7.3984-7.3984-7.3984zm172.86 97.91-39.207 32.672-17.422-17.418c-2.9023-2.8047-7.5195-2.7656-10.375 0.089844-2.8516 2.8555-2.8945 7.4688-0.089844 10.371l22.199 22.199c2.707 2.707 7.0312 2.9062 9.9688 0.45313l44.398-37c3.0391-2.6406 3.4102-7.2266 0.83203-10.32s-7.1562-3.5586-10.305-1.0469zm63.934 20.484c0 25.512-10.133 49.98-28.176 68.02-18.039 18.043-42.508 28.176-68.02 28.176s-49.98-10.133-68.02-28.176c-18.043-18.039-28.176-42.508-28.176-68.02s10.133-49.98 28.176-68.02c18.039-18.043 42.508-28.176 68.02-28.176 25.504 0.027344 49.957 10.172 67.988 28.207 18.035 18.031 28.18 42.484 28.207 67.988zm-14.801 0c0-21.586-8.5742-42.289-23.84-57.555-15.266-15.266-35.969-23.84-57.555-23.84-21.59 0-42.293 8.5742-57.559 23.84-15.262 15.266-23.84 35.969-23.84 57.555 0 21.59 8.5781 42.293 23.84 57.555 15.266 15.266 35.969 23.844 57.559 23.844 21.578-0.027343 42.27-8.6094 57.527-23.867 15.262-15.262 23.844-35.949 23.867-57.531z"/>
</svg>
